<svg width="1200" height="263" viewBox="0 0 1200 263" fill="none" xmlns="http://www.w3.org/2000/svg">
<g filter="url(#filter0_ii_127_10)">
<rect width="1200" height="263" fill="#005952"/>
<rect y="252" width="1200" height="11" fill="#C0FF00"/>
<path fill-rule="evenodd" clip-rule="evenodd" d="M206.063 52.0078C206.793 51.9265 208.415 52.4953 209.632 53.1453C210.93 53.8765 213.12 56.1516 214.499 58.2641C215.959 60.3766 217.176 62.8142 217.176 63.708C217.094 64.6017 215.553 67.6893 213.525 70.6143C211.579 73.5394 206.874 79.7145 203.143 84.427C199.411 89.1396 190.975 99.0523 184.405 106.609C177.916 114.084 171.995 120.421 171.346 120.828C170.616 121.153 169.723 121.071 169.237 120.584C168.75 120.015 172.238 114.896 179.863 105.146C186.109 97.1023 194.545 85.9708 198.519 80.3645C202.575 74.7581 206.955 68.0143 208.334 65.333C209.713 62.6517 210.605 59.9704 210.362 59.4829C210.119 58.9141 209.226 58.4266 208.415 58.4266C207.685 58.4266 204.116 60.3766 200.547 62.8142C196.978 65.2517 189.11 71.1831 183.107 75.9769C177.105 80.7707 168.344 88.4084 163.802 92.8772C159.178 97.4273 154.068 102.952 152.446 105.146C150.661 107.665 149.364 110.427 149.201 112.459C148.958 114.653 149.364 116.765 150.499 118.959C151.391 120.746 154.312 124.24 156.907 126.759C159.503 129.278 165.83 134.234 170.94 137.809C176.05 141.384 181.485 145.691 182.864 147.316C184.324 148.941 185.622 151.053 185.703 152.109C185.703 153.084 185.703 155.034 185.622 156.334C185.46 157.634 184.892 159.666 184.324 160.803C183.756 161.941 180.917 165.028 178.078 167.71C175.158 170.391 169.886 174.21 166.398 176.241C162.829 178.272 156.502 181.279 152.284 183.066C148.066 184.772 141.09 187.047 136.872 188.104C132.329 189.322 126.895 190.054 123.488 190.054C120.324 190.054 116.35 189.566 114.646 188.997C112.862 188.51 110.023 186.722 108.319 185.179C106.616 183.635 104.831 181.116 104.426 179.735C103.858 177.947 103.858 176.891 104.426 176.647C104.831 176.404 105.724 176.81 106.21 177.622C106.778 178.354 108.482 179.41 109.861 180.06C111.321 180.629 115.052 181.116 118.215 181.116C121.298 181.116 126.327 180.547 129.328 179.897C132.41 179.247 137.602 177.785 140.928 176.647C144.253 175.51 149.931 173.153 153.5 171.366C157.069 169.578 162.504 166.166 165.668 163.81C168.75 161.535 172.481 158.041 173.941 156.172C175.482 154.141 176.618 151.703 176.618 150.484C176.618 149.184 176.131 147.478 175.482 146.584C174.915 145.691 169.561 141.465 163.64 137.24C157.799 133.015 150.661 127.165 147.822 124.24C144.983 121.315 142.144 117.578 141.414 115.953C140.684 114.246 140.116 111.484 140.116 109.859C140.116 108.152 141.09 104.821 142.307 102.302C143.848 99.1335 147.822 94.5022 155.934 86.3771C162.18 80.1207 171.265 71.9956 176.213 68.3393C181.079 64.683 188.461 59.8891 192.436 57.6141C196.41 55.4203 200.79 53.2265 202.169 52.8203C203.467 52.414 205.252 52.0078 205.982 52.0078H206.063ZM370.239 75.4894C371.051 75.4894 372.592 76.3019 373.646 77.2769C374.62 78.3332 375.512 79.877 375.593 80.7707C375.674 81.6645 372.511 87.1896 368.617 92.9584C364.724 98.8085 359.208 107.34 356.369 112.052C353.53 116.765 349.393 124.24 347.203 128.709C345.013 133.178 342.174 139.515 341.038 142.765C339.902 145.934 338.686 150.566 338.361 152.922C338.037 155.766 338.199 157.309 338.767 157.797C339.335 158.122 340.957 157.228 342.741 155.766C344.364 154.303 349.149 149.103 353.367 144.147C357.829 138.865 362.371 132.528 364.318 128.709C366.184 125.134 368.617 121.234 371.781 117.659L373.646 119.528C374.62 120.584 375.431 122.128 375.431 123.021C375.431 123.915 373.971 127.978 372.267 131.959C370.564 135.94 368.374 141.628 367.4 144.553C366.427 147.478 365.535 151.053 365.291 152.516C365.021 154.249 365.21 155.116 365.859 155.116C366.427 155.197 368.536 153.409 370.564 151.297C372.592 149.184 375.999 145.122 378.107 142.359C380.216 139.515 382.082 137.24 382.325 137.24C382.569 137.24 382.731 137.728 382.731 138.297C382.812 138.784 380.622 142.603 378.026 146.584C375.431 150.566 371.943 155.116 370.32 156.578C368.698 157.959 366.751 159.178 366.102 159.178C365.454 159.178 363.75 158.203 362.371 156.984C361.073 155.684 359.532 153.409 359.045 151.866C358.559 150.322 358.397 147.234 358.721 144.959C358.964 142.765 359.127 141.059 358.883 141.303C358.721 141.547 355.72 145.366 352.151 149.834C348.663 154.303 344.607 158.772 343.147 159.828C341.687 160.803 339.902 161.616 339.091 161.616C338.361 161.697 336.82 160.966 335.684 160.153C334.549 159.341 333.17 157.391 332.521 155.847C331.71 153.978 331.466 151.459 332.278 142.522L328.546 146.991C326.437 149.428 322.868 153.409 320.516 155.766C317.596 158.61 315.568 159.991 314.189 159.991C313.053 159.991 311.025 159.097 309.728 157.959C308.43 156.822 306.889 154.547 306.402 152.922C305.753 150.728 305.753 148.616 306.321 145.772C306.808 143.578 307.051 141.628 306.808 141.547C306.645 141.384 304.861 143.009 302.914 145.203C300.967 147.316 298.209 150.484 296.668 152.191C295.127 153.978 292.775 156.009 291.477 156.822C289.368 158.041 288.719 158.122 287.015 157.228C285.88 156.659 284.339 154.791 283.528 153.166C282.798 151.541 281.662 150.241 281.094 150.241C280.607 150.241 275.903 151.622 270.792 153.409C265.682 155.116 258.382 157.716 254.57 159.178C249.784 160.966 247.026 161.616 245.647 161.21C244.511 160.885 242.646 159.585 241.348 158.284C240.05 156.822 239.158 155.034 239.158 153.734C239.239 151.866 242.321 148.291 255.381 135.047C264.303 125.946 271.604 118.309 271.604 117.984C271.604 117.578 269.657 117.74 267.305 118.228C265.033 118.715 261.14 119.771 258.787 120.503C254.975 121.64 254.326 121.64 252.136 120.584C250.595 119.853 249.784 118.796 249.865 117.984C250.027 117.171 251.893 115.628 254.164 114.571C256.354 113.434 261.464 112.052 265.52 111.402C269.495 110.752 273.713 110.427 274.848 110.671C275.984 110.915 277.525 112.052 278.255 113.19C279.066 114.328 279.958 116.359 280.283 117.74C280.932 120.015 280.283 120.746 269.9 131.309C263.898 137.484 257.003 144.634 254.732 147.234C252.379 149.753 250.514 152.191 250.514 152.678C250.514 153.22 251.379 153.22 253.109 152.678C254.57 152.191 261.221 150.728 267.953 149.347C274.605 148.047 280.364 146.666 280.689 146.341C281.013 146.016 281.905 143.578 282.554 140.897C283.284 138.215 285.15 133.665 286.61 130.74C288.151 127.815 291.152 123.59 293.261 121.396C295.37 119.121 298.939 116.034 301.211 114.49C303.806 112.703 306.564 111.646 308.917 111.402C311.674 111.077 313.378 111.484 315.811 112.784C317.596 113.759 319.705 115.628 320.435 116.928C321.246 118.309 321.895 120.015 321.895 120.828C321.976 121.559 321.165 122.94 318.569 125.459L318.65 122.046C318.65 118.796 318.488 118.553 316.379 118.553C315.162 118.553 312.404 119.69 310.214 121.153C308.024 122.615 304.374 125.865 302.103 128.384C299.832 130.903 296.993 134.722 295.776 136.915C294.559 139.109 292.694 143.334 291.558 146.422C290.422 149.428 289.692 152.028 290.017 152.272C290.422 152.434 294.478 148.697 299.183 143.903C303.887 139.109 309.403 133.259 315 126.515L317.596 128.628C319.056 129.765 320.273 131.472 320.273 132.365C320.273 133.259 319.137 136.672 317.839 139.922C316.46 143.091 314.919 147.884 314.351 150.403C313.783 152.922 313.621 155.278 314.027 155.684C314.351 156.009 316.46 154.547 318.731 152.272C321.003 150.078 325.869 144.634 329.52 140.328C334.305 134.559 336.982 130.497 339.253 125.296C341.038 121.396 344.769 113.759 347.689 108.396C350.528 103.034 355.071 94.9085 357.829 90.2771C360.587 85.6458 364.156 80.4457 365.778 78.6582C367.4 76.9519 369.428 75.4894 370.239 75.4894ZM381.19 98.2398C382.082 98.2398 383.623 99.1335 384.759 100.271C385.895 101.409 386.787 102.627 386.787 103.115C386.787 103.602 384.84 106.121 382.488 108.802C380.216 111.484 377.702 113.678 377.053 113.678C376.404 113.678 375.35 113.271 374.782 112.703C374.214 112.134 373.808 110.915 373.808 110.021C373.808 109.127 374.62 106.771 375.512 104.74C376.404 102.709 377.702 100.434 378.432 99.7023C379.162 98.8898 380.379 98.2398 381.19 98.2398ZM207.198 112.052C207.847 112.052 209.307 112.54 210.524 113.19C211.822 113.759 213.282 114.896 213.769 115.628C214.661 116.684 214.093 118.471 210.119 126.515C207.442 131.715 203.954 139.353 202.25 143.334C200.223 148.209 199.411 151.216 199.817 152.272C200.304 153.734 201.034 153.166 206.063 147.803C209.145 144.472 214.661 137.89 218.23 133.178C221.88 128.465 226.828 122.209 229.181 119.203C231.938 115.628 234.047 113.678 235.102 113.678C235.994 113.678 237.779 114.653 241.51 118.146L235.102 131.147C231.533 138.297 227.964 146.422 227.234 149.184C226.423 151.947 226.017 154.547 226.342 154.872C226.666 155.197 227.883 154.872 229.018 154.141C230.154 153.328 233.48 149.591 236.481 145.772C239.969 141.465 242.321 139.19 242.808 139.678C243.295 140.165 242.078 142.765 239.158 147.072C236.724 150.728 233.317 155.116 231.614 156.903C229.992 158.61 228.126 159.991 227.558 159.991C227.072 160.072 225.611 159.341 224.314 158.366C223.097 157.472 221.556 155.522 220.826 154.141C219.852 152.272 219.609 150.241 219.852 147.397C220.096 145.203 221.394 140.734 222.61 137.565C223.908 134.397 224.557 131.959 224.151 132.04C223.665 132.203 220.745 135.697 217.662 139.84C214.499 143.903 209.794 149.591 207.117 152.434C203.467 156.253 201.683 157.553 199.979 157.553C198.6 157.553 196.897 156.659 195.356 155.116C193.977 153.816 192.679 151.459 192.436 150.078C192.192 148.616 192.354 145.366 192.922 142.928C193.49 140.49 195.031 135.697 196.329 132.365C197.627 129.034 200.385 123.103 202.413 119.203C204.359 115.221 206.55 112.052 207.198 112.052ZM208.658 177.054C209.389 177.054 210.849 177.379 211.984 177.866C213.12 178.354 213.85 179.004 213.606 179.491C213.363 179.979 212.228 180.06 210.767 179.735C208.983 179.247 208.01 179.491 206.712 180.71C205.819 181.604 205.008 183.147 205.089 184.204C205.089 185.179 205.901 186.56 206.874 187.291C208.091 188.104 209.551 188.347 210.93 188.104C212.228 187.86 213.363 187.941 213.606 188.429C213.85 188.916 212.714 189.566 211.173 190.054C209.28 190.595 207.793 190.595 206.712 190.054C205.819 189.566 204.522 188.429 203.873 187.454C203.224 186.397 202.656 184.772 202.737 183.716C202.737 182.66 203.792 180.71 205.089 179.41C206.387 178.11 208.01 177.054 208.658 177.054ZM229.748 177.054C231.046 177.054 232.831 178.029 234.291 179.491C235.67 180.872 236.724 182.822 236.724 183.96C236.724 185.097 235.832 186.966 234.777 188.266C233.317 189.891 232.101 190.46 229.829 190.46C227.558 190.46 226.342 189.891 224.881 188.266C223.827 186.966 222.935 185.016 223.016 183.879C223.016 182.741 224.07 180.71 225.368 179.41C226.747 178.029 228.532 177.054 229.748 177.054ZM225.774 185.016C226.179 186.154 227.558 187.535 228.775 188.022C230.56 188.672 231.29 188.51 232.669 187.21C233.561 186.316 234.372 184.854 234.372 183.96C234.372 183.066 233.723 181.685 232.912 180.954C232.101 180.141 230.722 179.491 229.748 179.491C228.775 179.491 227.315 180.222 226.504 181.197C225.287 182.497 225.125 183.229 225.774 185.016ZM254.975 185.504L255.381 181.522C255.624 179.329 256.273 177.46 256.76 177.297C257.571 177.135 257.814 178.841 257.733 191.273L253.921 187.047C251.812 184.691 249.865 182.741 249.459 182.741C249.135 182.741 248.891 184.61 248.891 186.804C248.891 189.648 248.567 190.785 247.837 190.623C247.188 190.46 246.782 188.347 246.62 184.772C246.458 181.766 246.539 178.679 246.864 177.947C247.269 176.972 248.243 177.622 254.975 185.504ZM272.171 177.054C272.739 177.054 273.794 177.216 274.443 177.46C275.092 177.704 275.659 178.191 275.659 178.679C275.659 179.166 274.524 179.491 273.226 179.491C271.604 179.491 270.792 179.897 270.792 180.71C270.792 181.36 271.441 182.172 272.171 182.497C272.983 182.741 274.28 183.554 275.092 184.285C275.903 185.016 276.552 186.154 276.552 186.804C276.552 187.454 275.74 188.754 274.848 189.647C273.469 190.948 272.739 191.11 271.036 190.46C269.819 189.973 268.765 189.16 268.602 188.672C268.44 187.968 269.197 187.697 270.874 187.86C272.334 187.941 273.632 187.697 273.794 187.21C273.956 186.722 272.82 185.585 271.279 184.61C269.332 183.391 268.278 182.091 268.197 180.71C268.116 179.491 268.684 178.435 269.657 177.947C270.468 177.46 271.685 177.054 272.171 177.054ZM286.934 177.054H289.854C291.396 177.054 293.261 177.216 293.91 177.46C294.559 177.704 295.127 178.191 295.127 178.679C295.127 179.166 293.829 179.491 292.288 179.491C290.017 179.491 289.449 179.816 289.449 181.116C289.449 182.416 290.017 182.741 291.882 182.741C293.18 182.741 294.316 183.066 294.316 183.554C294.316 184.041 293.18 184.366 291.882 184.366C289.854 184.366 289.449 184.691 289.449 186.397C289.449 188.185 289.773 188.429 292.288 188.429C294.154 188.429 295.046 188.754 294.884 189.485C294.721 190.054 293.18 190.46 287.421 190.46L286.934 177.054ZM306.726 177.297C307.375 177.46 307.7 179.979 307.7 183.96C307.7 188.347 307.375 190.379 306.645 190.623C305.915 190.785 305.672 189.079 305.753 183.879C305.834 179.085 306.159 177.054 306.726 177.297ZM319.461 177.866C319.867 177.866 320.273 180.141 320.273 188.429H323.112C324.653 188.429 325.951 188.835 325.951 189.241C325.951 189.729 324.328 190.054 318.65 190.054V183.96C318.65 180.466 318.975 177.866 319.461 177.866Z" fill="#B4E717"/>
<path d="M605.744 60.6H612.626L617.09 94.266H617.214L621.678 60.6H627.94L621.368 104H612.316L605.744 60.6Z" fill="#B4E717"/>
<path d="M640.953 104.62C637.605 104.62 635.042 103.669 633.265 101.768C631.487 99.8666 630.599 97.18 630.599 93.708V70.892C630.599 67.42 631.487 64.7333 633.265 62.832C635.042 60.9306 637.605 59.98 640.953 59.98C644.301 59.98 646.863 60.9306 648.641 62.832C650.418 64.7333 651.307 67.42 651.307 70.892V93.708C651.307 97.18 650.418 99.8666 648.641 101.768C646.863 103.669 644.301 104.62 640.953 104.62ZM640.953 98.42C643.309 98.42 644.487 96.994 644.487 94.142V70.458C644.487 67.606 643.309 66.18 640.953 66.18C638.597 66.18 637.419 67.606 637.419 70.458V94.142C637.419 96.994 638.597 98.42 640.953 98.42Z" fill="#B4E717"/>
<path d="M661.009 66.8H653.879V60.6H674.959V66.8H667.829V104H661.009V66.8Z" fill="#B4E717"/>
<path d="M678.261 60.6H688.367C691.88 60.6 694.443 61.4266 696.055 63.08C697.667 64.692 698.473 67.1926 698.473 70.582V73.248C698.473 77.7533 696.985 80.6053 694.009 81.804V81.928C695.662 82.424 696.819 83.4366 697.481 84.966C698.183 86.4953 698.535 88.5413 698.535 91.104V98.73C698.535 99.97 698.576 100.983 698.659 101.768C698.741 102.512 698.948 103.256 699.279 104H692.335C692.087 103.297 691.921 102.636 691.839 102.016C691.756 101.396 691.715 100.28 691.715 98.668V90.732C691.715 88.748 691.384 87.3633 690.723 86.578C690.103 85.7926 689.007 85.4 687.437 85.4H685.081V104H678.261V60.6ZM687.561 79.2C688.925 79.2 689.937 78.8486 690.599 78.146C691.301 77.4433 691.653 76.2653 691.653 74.612V71.264C691.653 69.6933 691.363 68.5566 690.785 67.854C690.247 67.1513 689.379 66.8 688.181 66.8H685.081V79.2H687.561Z" fill="#B4E717"/>
<path d="M703.267 60.6H721.867V66.8H710.087V78.27H719.449V84.47H710.087V97.8H721.867V104H703.267V60.6Z" fill="#B4E717"/>
<path d="M735.72 60.6H745.764C749.153 60.6 751.695 61.5093 753.39 63.328C755.084 65.1466 755.932 67.8126 755.932 71.326V75.604C755.932 79.1173 755.084 81.7833 753.39 83.602C751.695 85.4206 749.153 86.33 745.764 86.33H742.54V104H735.72V60.6ZM745.764 80.13C746.88 80.13 747.706 79.82 748.244 79.2C748.822 78.58 749.112 77.526 749.112 76.038V70.892C749.112 69.404 748.822 68.35 748.244 67.73C747.706 67.11 746.88 66.8 745.764 66.8H742.54V80.13H745.764Z" fill="#B4E717"/>
<path d="M762.726 60.6H771.964L779.032 104H772.212L770.972 95.382V95.506H763.222L761.982 104H755.658L762.726 60.6ZM770.166 89.616L767.128 68.164H767.004L764.028 89.616H770.166Z" fill="#B4E717"/>
<path d="M782.341 60.6H792.447C795.96 60.6 798.523 61.4266 800.135 63.08C801.747 64.692 802.553 67.1926 802.553 70.582V73.248C802.553 77.7533 801.065 80.6053 798.089 81.804V81.928C799.742 82.424 800.9 83.4366 801.561 84.966C802.264 86.4953 802.615 88.5413 802.615 91.104V98.73C802.615 99.97 802.656 100.983 802.739 101.768C802.822 102.512 803.028 103.256 803.359 104H796.415C796.167 103.297 796.002 102.636 795.919 102.016C795.836 101.396 795.795 100.28 795.795 98.668V90.732C795.795 88.748 795.464 87.3633 794.803 86.578C794.183 85.7926 793.088 85.4 791.517 85.4H789.161V104H782.341V60.6ZM791.641 79.2C793.005 79.2 794.018 78.8486 794.679 78.146C795.382 77.4433 795.733 76.2653 795.733 74.612V71.264C795.733 69.6933 795.444 68.5566 794.865 67.854C794.328 67.1513 793.46 66.8 792.261 66.8H789.161V79.2H791.641Z" fill="#B4E717"/>
<path d="M812.558 66.8H805.428V60.6H826.508V66.8H819.378V104H812.558V66.8Z" fill="#B4E717"/>
<path d="M829.81 60.6H848.41V66.8H836.63V78.27H845.992V84.47H836.63V97.8H848.41V104H829.81V60.6Z" fill="#B4E717"/>
<path d="M852.333 60.6H860.889L867.523 86.578H867.647V60.6H873.723V104H866.717L858.533 72.318H858.409V104H852.333V60.6Z" fill="#B4E717"/>
<path d="M884.062 60.6H893.3L900.368 104H893.548L892.308 95.382V95.506H884.558L883.318 104H876.994L884.062 60.6ZM891.502 89.616L888.464 68.164H888.34L885.364 89.616H891.502Z" fill="#B4E717"/>
<path d="M903.677 60.6H910.497V104H903.677V60.6Z" fill="#B4E717"/>
<path d="M915.605 60.6H925.711C929.224 60.6 931.787 61.4266 933.399 63.08C935.011 64.692 935.817 67.1926 935.817 70.582V73.248C935.817 77.7533 934.329 80.6053 931.353 81.804V81.928C933.006 82.424 934.163 83.4366 934.825 84.966C935.527 86.4953 935.879 88.5413 935.879 91.104V98.73C935.879 99.97 935.92 100.983 936.003 101.768C936.085 102.512 936.292 103.256 936.623 104H929.679C929.431 103.297 929.265 102.636 929.183 102.016C929.1 101.396 929.059 100.28 929.059 98.668V90.732C929.059 88.748 928.728 87.3633 928.067 86.578C927.447 85.7926 926.351 85.4 924.781 85.4H922.425V104H915.605V60.6ZM924.905 79.2C926.269 79.2 927.281 78.8486 927.943 78.146C928.645 77.4433 928.997 76.2653 928.997 74.612V71.264C928.997 69.6933 928.707 68.5566 928.129 67.854C927.591 67.1513 926.723 66.8 925.525 66.8H922.425V79.2H924.905Z" fill="#B4E717"/>
<path d="M940.61 60.6H959.21V66.8H947.43V78.27H956.792V84.47H947.43V97.8H959.21V104H940.61V60.6Z" fill="#B4E717"/>
<path d="M973.064 60.6H983.108C986.497 60.6 989.039 61.5093 990.733 63.328C992.428 65.1466 993.276 67.8126 993.276 71.326V75.604C993.276 79.1173 992.428 81.7833 990.733 83.602C989.039 85.4206 986.497 86.33 983.108 86.33H979.884V104H973.064V60.6ZM983.108 80.13C984.224 80.13 985.05 79.82 985.587 79.2C986.166 78.58 986.456 77.526 986.456 76.038V70.892C986.456 69.404 986.166 68.35 985.587 67.73C985.05 67.11 984.224 66.8 983.108 66.8H979.884V80.13H983.108Z" fill="#B4E717"/>
<path d="M1006.84 104.62C1003.49 104.62 1000.93 103.669 999.15 101.768C997.372 99.8666 996.484 97.18 996.484 93.708V70.892C996.484 67.42 997.372 64.7333 999.15 62.832C1000.93 60.9306 1003.49 59.98 1006.84 59.98C1010.19 59.98 1012.75 60.9306 1014.53 62.832C1016.3 64.7333 1017.19 67.42 1017.19 70.892V93.708C1017.19 97.18 1016.3 99.8666 1014.53 101.768C1012.75 103.669 1010.19 104.62 1006.84 104.62ZM1006.84 98.42C1009.19 98.42 1010.37 96.994 1010.37 94.142V70.458C1010.37 67.606 1009.19 66.18 1006.84 66.18C1004.48 66.18 1003.3 67.606 1003.3 70.458V94.142C1003.3 96.994 1004.48 98.42 1006.84 98.42Z" fill="#B4E717"/>
<path d="M1031.72 104.62C1028.42 104.62 1025.9 103.69 1024.16 101.83C1022.42 99.9286 1021.56 97.2213 1021.56 93.708V60.6H1028.38V94.204C1028.38 95.692 1028.67 96.7666 1029.24 97.428C1029.86 98.0893 1030.73 98.42 1031.85 98.42C1032.96 98.42 1033.81 98.0893 1034.39 97.428C1035.01 96.7666 1035.32 95.692 1035.32 94.204V60.6H1041.89V93.708C1041.89 97.2213 1041.02 99.9286 1039.29 101.83C1037.55 103.69 1035.03 104.62 1031.72 104.62Z" fill="#B4E717"/>
<path d="M1046.75 60.6H1056.86C1060.37 60.6 1062.93 61.4266 1064.54 63.08C1066.16 64.692 1066.96 67.1926 1066.96 70.582V73.248C1066.96 77.7533 1065.47 80.6053 1062.5 81.804V81.928C1064.15 82.424 1065.31 83.4366 1065.97 84.966C1066.67 86.4953 1067.02 88.5413 1067.02 91.104V98.73C1067.02 99.97 1067.06 100.983 1067.15 101.768C1067.23 102.512 1067.44 103.256 1067.77 104H1060.82C1060.58 103.297 1060.41 102.636 1060.33 102.016C1060.24 101.396 1060.2 100.28 1060.2 98.668V90.732C1060.2 88.748 1059.87 87.3633 1059.21 86.578C1058.59 85.7926 1057.5 85.4 1055.93 85.4H1053.57V104H1046.75V60.6ZM1056.05 79.2C1057.41 79.2 1058.43 78.8486 1059.09 78.146C1059.79 77.4433 1060.14 76.2653 1060.14 74.612V71.264C1060.14 69.6933 1059.85 68.5566 1059.27 67.854C1058.74 67.1513 1057.87 66.8 1056.67 66.8H1053.57V79.2H1056.05Z" fill="#B4E717"/>
<path d="M617.462 178.62C614.155 178.62 611.634 177.69 609.898 175.83C608.162 173.929 607.294 171.221 607.294 167.708V134.6H614.114V168.204C614.114 169.692 614.403 170.767 614.982 171.428C615.602 172.089 616.47 172.42 617.586 172.42C618.702 172.42 619.549 172.089 620.128 171.428C620.748 170.767 621.058 169.692 621.058 168.204V134.6H627.63V167.708C627.63 171.221 626.762 173.929 625.026 175.83C623.29 177.69 620.769 178.62 617.462 178.62Z" fill="#B4E717"/>
<path d="M632.487 134.6H641.043L647.677 160.578H647.801V134.6H653.877V178H646.871L638.687 146.318H638.563V178H632.487V134.6Z" fill="#B4E717"/>
<path d="M658.946 134.6H677.546V140.8H665.766V152.27H675.128V158.47H665.766V171.8H677.546V178H658.946V134.6Z" fill="#B4E717"/>
<path d="M701.009 178.62C697.744 178.62 695.243 177.69 693.507 175.83C691.813 173.97 690.965 171.345 690.965 167.956V144.644C690.965 141.255 691.813 138.63 693.507 136.77C695.243 134.91 697.744 133.98 701.009 133.98C704.275 133.98 706.755 134.91 708.449 136.77C710.185 138.63 711.053 141.255 711.053 144.644V149.232H704.605V144.21C704.605 141.523 703.469 140.18 701.195 140.18C698.922 140.18 697.785 141.523 697.785 144.21V168.452C697.785 171.097 698.922 172.42 701.195 172.42C703.469 172.42 704.605 171.097 704.605 168.452V161.818H711.053V167.956C711.053 171.345 710.185 173.97 708.449 175.83C706.755 177.69 704.275 178.62 701.009 178.62Z" fill="#B4E717"/>
<path d="M715.134 134.6H725.24C728.753 134.6 731.316 135.427 732.928 137.08C734.54 138.692 735.346 141.193 735.346 144.582V147.248C735.346 151.753 733.858 154.605 730.882 155.804V155.928C732.535 156.424 733.692 157.437 734.354 158.966C735.056 160.495 735.408 162.541 735.408 165.104V172.73C735.408 173.97 735.449 174.983 735.532 175.768C735.614 176.512 735.821 177.256 736.152 178H729.208C728.96 177.297 728.794 176.636 728.712 176.016C728.629 175.396 728.588 174.28 728.588 172.668V164.732C728.588 162.748 728.257 161.363 727.596 160.578C726.976 159.793 725.88 159.4 724.31 159.4H721.954V178H715.134V134.6ZM724.434 153.2C725.798 153.2 726.81 152.849 727.472 152.146C728.174 151.443 728.526 150.265 728.526 148.612V145.264C728.526 143.693 728.236 142.557 727.658 141.854C727.12 141.151 726.252 140.8 725.054 140.8H721.954V153.2H724.434Z" fill="#B4E717"/>
<path d="M749.998 178.62C746.65 178.62 744.087 177.669 742.31 175.768C740.532 173.867 739.644 171.18 739.644 167.708V144.892C739.644 141.42 740.532 138.733 742.31 136.832C744.087 134.931 746.65 133.98 749.998 133.98C753.346 133.98 755.908 134.931 757.686 136.832C759.463 138.733 760.352 141.42 760.352 144.892V167.708C760.352 171.18 759.463 173.867 757.686 175.768C755.908 177.669 753.346 178.62 749.998 178.62ZM749.998 172.42C752.354 172.42 753.532 170.994 753.532 168.142V144.458C753.532 141.606 752.354 140.18 749.998 140.18C747.642 140.18 746.464 141.606 746.464 144.458V168.142C746.464 170.994 747.642 172.42 749.998 172.42Z" fill="#B4E717"/>
<path d="M764.964 134.6H771.784V178H764.964V134.6Z" fill="#B4E717"/>
<path d="M785.758 178.62C782.451 178.62 779.95 177.69 778.256 175.83C776.561 173.929 775.714 171.221 775.714 167.708V165.228H782.162V168.204C782.162 171.015 783.34 172.42 785.696 172.42C786.853 172.42 787.721 172.089 788.3 171.428C788.92 170.725 789.23 169.609 789.23 168.08C789.23 166.261 788.816 164.67 787.99 163.306C787.163 161.901 785.634 160.227 783.402 158.284C780.591 155.804 778.628 153.572 777.512 151.588C776.396 149.563 775.838 147.289 775.838 144.768C775.838 141.337 776.706 138.692 778.442 136.832C780.178 134.931 782.699 133.98 786.006 133.98C789.271 133.98 791.73 134.931 793.384 136.832C795.078 138.692 795.926 141.379 795.926 144.892V146.69H789.478V144.458C789.478 142.97 789.188 141.895 788.61 141.234C788.031 140.531 787.184 140.18 786.068 140.18C783.794 140.18 782.658 141.565 782.658 144.334C782.658 145.905 783.071 147.372 783.898 148.736C784.766 150.1 786.316 151.753 788.548 153.696C791.4 156.176 793.363 158.429 794.438 160.454C795.512 162.479 796.05 164.856 796.05 167.584C796.05 171.139 795.161 173.867 793.384 175.768C791.648 177.669 789.106 178.62 785.758 178.62Z" fill="#B4E717"/>
<path d="M808.826 178.62C805.519 178.62 803.019 177.69 801.324 175.83C799.629 173.929 798.782 171.221 798.782 167.708V165.228H805.23V168.204C805.23 171.015 806.408 172.42 808.764 172.42C809.921 172.42 810.789 172.089 811.368 171.428C811.988 170.725 812.298 169.609 812.298 168.08C812.298 166.261 811.885 164.67 811.058 163.306C810.231 161.901 808.702 160.227 806.47 158.284C803.659 155.804 801.696 153.572 800.58 151.588C799.464 149.563 798.906 147.289 798.906 144.768C798.906 141.337 799.774 138.692 801.51 136.832C803.246 134.931 805.767 133.98 809.074 133.98C812.339 133.98 814.799 134.931 816.452 136.832C818.147 138.692 818.994 141.379 818.994 144.892V146.69H812.546V144.458C812.546 142.97 812.257 141.895 811.678 141.234C811.099 140.531 810.252 140.18 809.136 140.18C806.863 140.18 805.726 141.565 805.726 144.334C805.726 145.905 806.139 147.372 806.966 148.736C807.834 150.1 809.384 151.753 811.616 153.696C814.468 156.176 816.431 158.429 817.506 160.454C818.581 162.479 819.118 164.856 819.118 167.584C819.118 171.139 818.229 173.867 816.452 175.768C814.716 177.669 812.174 178.62 808.826 178.62Z" fill="#B4E717"/>
<path d="M828.117 134.6H837.355L844.423 178H837.603L836.363 169.382V169.506H828.613L827.373 178H821.049L828.117 134.6ZM835.557 163.616L832.519 142.164H832.395L829.419 163.616H835.557Z" fill="#B4E717"/>
<path d="M847.731 134.6H856.287L862.921 160.578H863.045V134.6H869.121V178H862.115L853.931 146.318H853.807V178H847.731V134.6Z" fill="#B4E717"/>
<path d="M883.8 178.62C880.535 178.62 878.034 177.69 876.298 175.83C874.604 173.97 873.756 171.345 873.756 167.956V144.644C873.756 141.255 874.604 138.63 876.298 136.77C878.034 134.91 880.535 133.98 883.8 133.98C887.066 133.98 889.546 134.91 891.24 136.77C892.976 138.63 893.844 141.255 893.844 144.644V149.232H887.396V144.21C887.396 141.523 886.26 140.18 883.986 140.18C881.713 140.18 880.576 141.523 880.576 144.21V168.452C880.576 171.097 881.713 172.42 883.986 172.42C886.26 172.42 887.396 171.097 887.396 168.452V161.818H893.844V167.956C893.844 171.345 892.976 173.97 891.24 175.83C889.546 177.69 887.066 178.62 883.8 178.62Z" fill="#B4E717"/>
<path d="M897.925 134.6H916.525V140.8H904.745V152.27H914.107V158.47H904.745V171.8H916.525V178H897.925V134.6Z" fill="#B4E717"/>
<path d="M930.378 134.6H940.794C944.183 134.6 946.725 135.509 948.42 137.328C950.115 139.147 950.962 141.813 950.962 145.326V167.274C950.962 170.787 950.115 173.453 948.42 175.272C946.725 177.091 944.183 178 940.794 178H930.378V134.6ZM940.67 171.8C941.786 171.8 942.633 171.469 943.212 170.808C943.832 170.147 944.142 169.072 944.142 167.584V145.016C944.142 143.528 943.832 142.453 943.212 141.792C942.633 141.131 941.786 140.8 940.67 140.8H937.198V171.8H940.67Z" fill="#B4E717"/>
<path d="M965.485 178.62C962.179 178.62 959.657 177.69 957.921 175.83C956.185 173.929 955.317 171.221 955.317 167.708V134.6H962.137V168.204C962.137 169.692 962.427 170.767 963.005 171.428C963.625 172.089 964.493 172.42 965.609 172.42C966.725 172.42 967.573 172.089 968.151 171.428C968.771 170.767 969.081 169.692 969.081 168.204V134.6H975.653V167.708C975.653 171.221 974.785 173.929 973.049 175.83C971.313 177.69 968.792 178.62 965.485 178.62Z" fill="#B4E717"/>
<path d="M980.511 134.6H990.617C994.13 134.6 996.693 135.427 998.305 137.08C999.917 138.692 1000.72 141.193 1000.72 144.582V147.248C1000.72 151.753 999.235 154.605 996.259 155.804V155.928C997.912 156.424 999.069 157.437 999.731 158.966C1000.43 160.495 1000.78 162.541 1000.78 165.104V172.73C1000.78 173.97 1000.83 174.983 1000.91 175.768C1000.99 176.512 1001.2 177.256 1001.53 178H994.585C994.337 177.297 994.171 176.636 994.089 176.016C994.006 175.396 993.965 174.28 993.965 172.668V164.732C993.965 162.748 993.634 161.363 992.973 160.578C992.353 159.793 991.257 159.4 989.687 159.4H987.331V178H980.511V134.6ZM989.811 153.2C991.175 153.2 992.187 152.849 992.849 152.146C993.551 151.443 993.903 150.265 993.903 148.612V145.264C993.903 143.693 993.613 142.557 993.035 141.854C992.497 141.151 991.629 140.8 990.431 140.8H987.331V153.2H989.811Z" fill="#B4E717"/>
<path d="M1010.79 134.6H1020.02L1027.09 178H1020.27L1019.03 169.382V169.506H1011.28L1010.04 178H1003.72L1010.79 134.6ZM1018.23 163.616L1015.19 142.164H1015.06L1012.09 163.616H1018.23Z" fill="#B4E717"/>
<path d="M1030.4 134.6H1040.69C1044.21 134.6 1046.77 135.427 1048.38 137.08C1049.99 138.692 1050.8 141.193 1050.8 144.582V146.318C1050.8 148.55 1050.43 150.369 1049.68 151.774C1048.98 153.179 1047.89 154.192 1046.4 154.812V154.936C1049.79 156.093 1051.48 159.111 1051.48 163.988V167.708C1051.48 171.056 1050.59 173.619 1048.82 175.396C1047.08 177.132 1044.52 178 1041.13 178H1030.4V134.6ZM1039.89 152.27C1041.25 152.27 1042.26 151.919 1042.93 151.216C1043.63 150.513 1043.98 149.335 1043.98 147.682V145.264C1043.98 143.693 1043.69 142.557 1043.11 141.854C1042.57 141.151 1041.71 140.8 1040.51 140.8H1037.22V152.27H1039.89ZM1041.13 171.8C1042.33 171.8 1043.21 171.49 1043.79 170.87C1044.37 170.209 1044.66 169.093 1044.66 167.522V163.74C1044.66 161.756 1044.31 160.392 1043.61 159.648C1042.95 158.863 1041.83 158.47 1040.26 158.47H1037.22V171.8H1041.13Z" fill="#B4E717"/>
<path d="M1055.47 134.6H1062.29V171.8H1073.51V178H1055.47V134.6Z" fill="#B4E717"/>
<path d="M1076.78 134.6H1095.38V140.8H1083.6V152.27H1092.96V158.47H1083.6V171.8H1095.38V178H1076.78V134.6Z" fill="#B4E717"/>
</g>
<defs>
<filter id="filter0_ii_127_10" x="-60" y="-76" width="1320" height="399" filterUnits="userSpaceOnUse" color-interpolation-filters="sRGB">
<feFlood flood-opacity="0" result="BackgroundImageFix"/>
<feBlend mode="normal" in="SourceGraphic" in2="BackgroundImageFix" result="shape"/>
<feColorMatrix in="SourceAlpha" type="matrix" values="0 0 0 0 0 0 0 0 0 0 0 0 0 0 0 0 0 0 127 0" result="hardAlpha"/>
<feOffset dx="60" dy="60"/>
<feGaussianBlur stdDeviation="82"/>
<feComposite in2="hardAlpha" operator="arithmetic" k2="-1" k3="1"/>
<feColorMatrix type="matrix" values="0 0 0 0 0 0 0 0 0 0 0 0 0 0 0 0 0 0 0.25 0"/>
<feBlend mode="normal" in2="shape" result="effect1_innerShadow_127_10"/>
<feColorMatrix in="SourceAlpha" type="matrix" values="0 0 0 0 0 0 0 0 0 0 0 0 0 0 0 0 0 0 127 0" result="hardAlpha"/>
<feOffset dx="-60" dy="-76"/>
<feGaussianBlur stdDeviation="125"/>
<feComposite in2="hardAlpha" operator="arithmetic" k2="-1" k3="1"/>
<feColorMatrix type="matrix" values="0 0 0 0 0 0 0 0 0 0 0 0 0 0 0 0 0 0 0.25 0"/>
<feBlend mode="normal" in2="effect1_innerShadow_127_10" result="effect2_innerShadow_127_10"/>
</filter>
</defs>
</svg>
