<svg width="283" height="140" viewBox="0 0 283 140" fill="none" xmlns="http://www.w3.org/2000/svg">
<path fill-rule="evenodd" clip-rule="evenodd" d="M102.063 0.0077622C102.793 -0.0734891 104.415 0.49527 105.632 1.14528C106.93 1.87654 109.12 4.15158 110.499 6.26411C111.959 8.37665 113.176 10.8142 113.176 11.708C113.094 12.6017 111.553 15.6893 109.525 18.6143C107.579 21.5394 102.874 27.7145 99.1427 32.427C95.4114 37.1396 86.9754 47.0523 80.4051 54.6087C73.9159 62.0838 67.9946 68.4214 67.3456 68.8276C66.6156 69.1526 65.7233 69.0714 65.2367 68.5839C64.75 68.0151 68.2379 62.8963 75.8627 53.1461C82.1085 45.1023 90.5445 33.9708 94.5191 28.3645C98.5749 22.7581 102.955 16.0143 104.334 13.333C105.713 10.6517 106.605 7.97039 106.362 7.48288C106.119 6.91412 105.226 6.42662 104.415 6.42662C103.685 6.42662 100.116 8.37665 96.547 10.8142C92.9779 13.2517 85.1098 19.1831 79.1073 23.9769C73.1048 28.7707 64.3444 36.4084 59.802 40.8772C55.1784 45.4273 50.0682 50.9523 48.4459 53.1461C46.6613 55.6649 45.3635 58.4275 45.2013 60.4587C44.9579 62.6525 45.3635 64.7651 46.4991 66.9589C47.3914 68.7464 50.3115 72.2402 52.9072 74.759C55.5029 77.2778 61.8298 82.2341 66.9401 85.8092C72.0503 89.3842 77.485 93.6905 78.864 95.3156C80.324 96.9406 81.6219 99.0531 81.703 100.109C81.703 101.084 81.703 103.034 81.6219 104.334C81.4596 105.634 80.8918 107.666 80.324 108.803C79.7562 109.941 76.9172 113.028 74.0782 115.71C71.158 118.391 65.8856 122.21 62.3976 124.241C58.8286 126.272 52.5016 129.279 48.2836 131.066C44.0657 132.772 37.0898 135.047 32.8718 136.104C28.3294 137.322 22.8947 138.054 19.4879 138.054C16.3244 138.054 12.3497 137.566 10.6463 136.997C8.8618 136.51 6.02278 134.722 4.31937 133.179C2.61596 131.635 0.831428 129.116 0.425853 127.735C-0.141951 125.947 -0.141951 124.891 0.425853 124.647C0.831428 124.404 1.72369 124.81 2.21038 125.622C2.77819 126.354 4.4816 127.41 5.86055 128.06C7.32062 128.629 11.0519 129.116 14.2154 129.116C17.2978 129.116 22.3269 128.547 25.3281 127.897C28.4105 127.247 33.6018 125.785 36.9276 124.647C40.2533 123.51 45.9313 121.153 49.5004 119.366C53.0694 117.578 58.5041 114.166 61.6676 111.81C64.75 109.535 68.4812 106.041 69.9413 104.172C71.4825 102.141 72.6181 99.7031 72.6181 98.4844C72.6181 97.1844 72.1314 95.4781 71.4825 94.5843C70.9147 93.6905 65.5611 89.4655 59.6397 85.2404C53.7995 81.0153 46.6613 75.1652 43.8223 72.2402C40.9833 69.3151 38.1443 65.5776 37.4142 63.9526C36.6842 62.2463 36.1164 59.4837 36.1164 57.8587C36.1164 56.1524 37.0898 52.8211 38.3065 50.3023C39.8477 47.1335 43.8223 42.5022 51.9338 34.3771C58.1797 28.1207 67.2645 19.9956 72.2125 16.3393C77.0794 12.683 84.4609 7.88914 88.4355 5.6141C92.4101 3.42032 96.7903 1.22653 98.1693 0.820275C99.4671 0.414019 101.252 0.0077622 101.982 0.0077622H102.063ZM266.239 23.4894C267.051 23.4894 268.592 24.3019 269.646 25.2769C270.62 26.3332 271.512 27.877 271.593 28.7707C271.674 29.6645 268.511 35.1896 264.617 40.9584C260.724 46.8085 255.208 55.3399 252.369 60.0525C249.53 64.7651 245.393 72.2402 243.203 76.709C241.013 81.1778 238.174 87.5154 237.038 90.7655C235.902 93.9343 234.686 98.5656 234.361 100.922C234.037 103.766 234.199 105.309 234.767 105.797C235.335 106.122 236.957 105.228 238.741 103.766C240.364 102.303 245.149 97.1031 249.367 92.1468C253.829 86.8654 258.371 80.5278 260.318 76.709C262.184 73.134 264.617 69.2339 267.781 65.6588L269.646 67.5276C270.62 68.5839 271.431 70.1277 271.431 71.0214C271.431 71.9152 269.971 75.9777 268.267 79.9591C266.564 83.9404 264.374 89.628 263.4 92.553C262.427 95.4781 261.535 99.0531 261.291 100.516C261.021 102.249 261.21 103.116 261.859 103.116C262.427 103.197 264.536 101.409 266.564 99.2969C268.592 97.1843 271.999 93.1218 274.107 90.3592C276.216 87.5154 278.082 85.2404 278.325 85.2404C278.569 85.2404 278.731 85.7279 278.731 86.2967C278.812 86.7842 276.622 90.603 274.026 94.5843C271.431 98.5656 267.943 103.116 266.32 104.578C264.698 105.959 262.751 107.178 262.102 107.178C261.454 107.178 259.75 106.203 258.371 104.984C257.073 103.684 255.532 101.409 255.045 99.8656C254.559 98.3219 254.397 95.2343 254.721 92.9593C254.964 90.7655 255.127 89.0592 254.883 89.303C254.721 89.5467 251.72 93.3655 248.151 97.8344C244.663 102.303 240.607 106.772 239.147 107.828C237.687 108.803 235.902 109.616 235.091 109.616C234.361 109.697 232.82 108.966 231.684 108.153C230.549 107.341 229.17 105.391 228.521 103.847C227.71 101.978 227.466 99.4594 228.278 90.5217L224.546 94.9906C222.437 97.4281 218.868 101.409 216.516 103.766C213.596 106.61 211.568 107.991 210.189 107.991C209.053 107.991 207.025 107.097 205.728 105.959C204.43 104.822 202.889 102.547 202.402 100.922C201.753 98.7281 201.753 96.6156 202.321 93.7718C202.808 91.578 203.051 89.628 202.808 89.5467C202.645 89.3842 200.861 91.0093 198.914 93.203C196.967 95.3156 194.209 98.4844 192.668 100.191C191.127 101.978 188.775 104.009 187.477 104.822C185.368 106.041 184.719 106.122 183.015 105.228C181.88 104.659 180.339 102.791 179.528 101.166C178.798 99.5406 177.662 98.2406 177.094 98.2406C176.607 98.2406 171.903 99.6219 166.792 101.409C161.682 103.116 154.382 105.716 150.57 107.178C145.784 108.966 143.026 109.616 141.647 109.21C140.511 108.885 138.646 107.585 137.348 106.284C136.05 104.822 135.158 103.034 135.158 101.734C135.239 99.8656 138.321 96.2906 151.381 83.0466C160.303 73.9465 167.604 66.3088 167.604 65.9838C167.604 65.5776 165.657 65.7401 163.305 66.2276C161.033 66.7151 157.14 67.7714 154.787 68.5026C150.975 69.6401 150.326 69.6401 148.136 68.5839C146.595 67.8526 145.784 66.7964 145.865 65.9838C146.027 65.1713 147.893 63.6275 150.164 62.5713C152.354 61.4338 157.464 60.0525 161.52 59.4025C165.495 58.7525 169.713 58.4275 170.848 58.6712C171.984 58.915 173.525 60.0525 174.255 61.19C175.066 62.3275 175.958 64.3588 176.283 65.7401C176.932 68.0151 176.283 68.7464 165.9 79.3091C159.898 85.4842 153.003 92.6343 150.732 95.2343C148.379 97.7531 146.514 100.191 146.514 100.678C146.514 101.22 147.379 101.22 149.109 100.678C150.57 100.191 157.221 98.7281 163.953 97.3468C170.605 96.0468 176.364 94.6656 176.689 94.3406C177.013 94.0155 177.905 91.578 178.554 88.8967C179.284 86.2154 181.15 81.6653 182.61 78.7403C184.151 75.8152 187.152 71.5902 189.261 69.3964C191.37 67.1214 194.939 64.0338 197.211 62.49C199.806 60.7025 202.564 59.6462 204.917 59.4025C207.674 59.0775 209.378 59.4837 211.811 60.7838C213.596 61.7588 215.705 63.6276 216.435 64.9276C217.246 66.3088 217.895 68.0151 217.895 68.8276C217.976 69.5589 217.165 70.9402 214.569 73.459L214.65 70.0464C214.65 66.7964 214.488 66.5526 212.379 66.5526C211.162 66.5526 208.404 67.6901 206.214 69.1526C204.024 70.6152 200.374 73.8652 198.103 76.384C195.832 78.9028 192.993 82.7216 191.776 84.9154C190.559 87.1092 188.694 91.3343 187.558 94.4218C186.422 97.4281 185.692 100.028 186.017 100.272C186.422 100.434 190.478 96.6968 195.183 91.903C199.887 87.1092 205.403 81.2591 211 74.5152L213.596 76.6278C215.056 77.7653 216.273 79.4716 216.273 80.3653C216.273 81.2591 215.137 84.6716 213.839 87.9217C212.46 91.0905 210.919 95.8843 210.351 98.4031C209.783 100.922 209.621 103.278 210.027 103.684C210.351 104.009 212.46 102.547 214.731 100.272C217.003 98.0781 221.869 92.6343 225.52 88.328C230.305 82.5591 232.982 78.4965 235.253 73.2965C237.038 69.3964 240.769 61.7588 243.689 56.3962C246.528 51.0336 251.071 42.9085 253.829 38.2771C256.587 33.6458 260.156 28.4457 261.778 26.6582C263.4 24.9519 265.428 23.4894 266.239 23.4894ZM277.19 46.2398C278.082 46.2398 279.623 47.1335 280.759 48.2711C281.895 49.4086 282.787 50.6273 282.787 51.1148C282.787 51.6024 280.84 54.1211 278.488 56.8024C276.216 59.4837 273.702 61.6775 273.053 61.6775C272.404 61.6775 271.35 61.2713 270.782 60.7025C270.214 60.1337 269.808 58.915 269.808 58.0212C269.808 57.1274 270.62 54.7712 271.512 52.7399C272.404 50.7086 273.702 48.4335 274.432 47.7023C275.162 46.8898 276.379 46.2398 277.19 46.2398ZM103.198 60.0525C103.847 60.0525 105.307 60.54 106.524 61.19C107.822 61.7588 109.282 62.8963 109.769 63.6276C110.661 64.6838 110.093 66.4713 106.119 74.5152C103.442 79.7153 99.9538 87.3529 98.2504 91.3342C96.2225 96.2093 95.4114 99.2156 95.817 100.272C96.3037 101.734 97.0337 101.166 102.063 95.8031C105.145 92.4718 110.661 85.8904 114.23 81.1778C117.88 76.4653 122.828 70.2089 125.181 67.2026C127.938 63.6276 130.047 61.6775 131.102 61.6775C131.994 61.6775 133.779 62.6525 137.51 66.1463L131.102 79.1466C127.533 86.2967 123.964 94.4218 123.234 97.1843C122.423 99.9469 122.017 102.547 122.342 102.872C122.666 103.197 123.883 102.872 125.018 102.141C126.154 101.328 129.48 97.5906 132.481 93.7718C135.969 89.4655 138.321 87.1904 138.808 87.6779C139.295 88.1654 138.078 90.7655 135.158 95.0718C132.724 98.7281 129.317 103.116 127.614 104.903C125.992 106.61 124.126 107.991 123.558 107.991C123.072 108.072 121.611 107.341 120.314 106.366C119.097 105.472 117.556 103.522 116.826 102.141C115.852 100.272 115.609 98.2406 115.852 95.3968C116.096 93.203 117.394 88.7342 118.61 85.5654C119.908 82.3966 120.557 79.9591 120.151 80.0403C119.665 80.2028 116.745 83.6966 113.662 87.8404C110.499 91.903 105.794 97.5906 103.117 100.434C99.4671 104.253 97.6826 105.553 95.9792 105.553C94.6002 105.553 92.8968 104.659 91.3556 103.116C89.9767 101.816 88.6789 99.4594 88.4355 98.0781C88.1922 96.6156 88.3544 93.3655 88.9222 90.928C89.49 88.4905 91.0312 83.6966 92.329 80.3653C93.6269 77.034 96.3848 71.1027 98.4126 67.2026C100.359 63.2213 102.55 60.0525 103.198 60.0525ZM104.658 125.054C105.389 125.054 106.849 125.379 107.984 125.866C109.12 126.354 109.85 127.004 109.606 127.491C109.363 127.979 108.228 128.06 106.767 127.735C104.983 127.247 104.01 127.491 102.712 128.71C101.819 129.604 101.008 131.147 101.089 132.204C101.089 133.179 101.901 134.56 102.874 135.291C104.091 136.104 105.551 136.347 106.93 136.104C108.228 135.86 109.363 135.941 109.606 136.429C109.85 136.916 108.714 137.566 107.173 138.054C105.28 138.595 103.793 138.595 102.712 138.054C101.819 137.566 100.522 136.429 99.8727 135.454C99.2238 134.397 98.656 132.772 98.7371 131.716C98.7371 130.66 99.7916 128.71 101.089 127.41C102.387 126.11 104.01 125.054 104.658 125.054ZM125.748 125.054C127.046 125.054 128.831 126.029 130.291 127.491C131.67 128.872 132.724 130.822 132.724 131.96C132.724 133.097 131.832 134.966 130.777 136.266C129.317 137.891 128.101 138.46 125.829 138.46C123.558 138.46 122.342 137.891 120.881 136.266C119.827 134.966 118.935 133.016 119.016 131.879C119.016 130.741 120.07 128.71 121.368 127.41C122.747 126.029 124.532 125.054 125.748 125.054ZM121.774 133.016C122.179 134.154 123.558 135.535 124.775 136.022C126.56 136.672 127.29 136.51 128.669 135.21C129.561 134.316 130.372 132.854 130.372 131.96C130.372 131.066 129.723 129.685 128.912 128.954C128.101 128.141 126.722 127.491 125.748 127.491C124.775 127.491 123.315 128.222 122.504 129.197C121.287 130.497 121.125 131.229 121.774 133.016ZM150.975 133.504L151.381 129.522C151.624 127.329 152.273 125.46 152.76 125.297C153.571 125.135 153.814 126.841 153.733 139.273L149.921 135.047C147.812 132.691 145.865 130.741 145.459 130.741C145.135 130.741 144.891 132.61 144.891 134.804C144.891 137.648 144.567 138.785 143.837 138.623C143.188 138.46 142.782 136.347 142.62 132.772C142.458 129.766 142.539 126.679 142.864 125.947C143.269 124.972 144.243 125.622 150.975 133.504ZM168.171 125.054C168.739 125.054 169.794 125.216 170.443 125.46C171.092 125.704 171.659 126.191 171.659 126.679C171.659 127.166 170.524 127.491 169.226 127.491C167.604 127.491 166.792 127.897 166.792 128.71C166.792 129.36 167.441 130.172 168.171 130.497C168.983 130.741 170.28 131.554 171.092 132.285C171.903 133.016 172.552 134.154 172.552 134.804C172.552 135.454 171.74 136.754 170.848 137.647C169.469 138.948 168.739 139.11 167.036 138.46C165.819 137.973 164.765 137.16 164.602 136.672C164.44 135.968 165.197 135.697 166.874 135.86C168.334 135.941 169.632 135.697 169.794 135.21C169.956 134.722 168.82 133.585 167.279 132.61C165.332 131.391 164.278 130.091 164.197 128.71C164.116 127.491 164.684 126.435 165.657 125.947C166.468 125.46 167.685 125.054 168.171 125.054ZM182.934 125.054H185.854C187.396 125.054 189.261 125.216 189.91 125.46C190.559 125.704 191.127 126.191 191.127 126.679C191.127 127.166 189.829 127.491 188.288 127.491C186.017 127.491 185.449 127.816 185.449 129.116C185.449 130.416 186.017 130.741 187.882 130.741C189.18 130.741 190.316 131.066 190.316 131.554C190.316 132.041 189.18 132.366 187.882 132.366C185.854 132.366 185.449 132.691 185.449 134.397C185.449 136.185 185.773 136.429 188.288 136.429C190.154 136.429 191.046 136.754 190.884 137.485C190.721 138.054 189.18 138.46 183.421 138.46L182.934 125.054ZM202.726 125.297C203.375 125.46 203.7 127.979 203.7 131.96C203.7 136.347 203.375 138.379 202.645 138.623C201.915 138.785 201.672 137.079 201.753 131.879C201.834 127.085 202.159 125.054 202.726 125.297ZM215.461 125.866C215.867 125.866 216.273 128.141 216.273 136.429H219.112C220.653 136.429 221.951 136.835 221.951 137.241C221.951 137.729 220.328 138.054 214.65 138.054V131.96C214.65 128.466 214.975 125.866 215.461 125.866Z" fill="#00524B"/>
</svg>
